<svg xmlns="http://www.w3.org/2000/svg" viewBox="0 0 1200 800" role="img" aria-label="Placeholder photo of a celebration cake">
  <rect width="1200" height="800" fill="#FBFAF9"/>
  <rect x="20" y="20" width="1160" height="760" fill="none" stroke="#2CCDC3" stroke-width="6" stroke-dasharray="14 12" rx="18"/>
  <g transform="translate(600,430)">
    <ellipse cx="0" cy="140" rx="230" ry="34" fill="#5C4033" opacity="0.15"/>
    <rect x="-190" y="20" width="380" height="120" rx="10" fill="#5C4033"/>
    <rect x="-150" y="-70" width="300" height="100" rx="10" fill="#5C4033" opacity="0.9"/>
    <rect x="-110" y="-150" width="220" height="90" rx="10" fill="#5C4033" opacity="0.8"/>
    <rect x="-190" y="10" width="380" height="16" fill="#2CCDC3"/>
    <rect x="-150" y="-80" width="300" height="14" fill="#2CCDC3"/>
    <rect x="-110" y="-158" width="220" height="12" fill="#2CCDC3"/>
    <g>
      <rect x="-6" y="-210" width="12" height="46" fill="#473C2F"/>
      <path d="M0 -212 C 14 -230, -14 -246, 0 -262 C 14 -246, -14 -230, 0 -212 Z" fill="#2CCDC3"/>
    </g>
  </g>
  <text x="600" y="700" text-anchor="middle" font-family="Georgia, serif" font-size="34" fill="#473C2F">Cake Photo Placeholder</text>
</svg>
